<?xml version="1.0" encoding="utf-8"?>
<!-- Generator: Adobe Illustrator 26.3.1, SVG Export Plug-In . SVG Version: 6.00 Build 0)  -->
<svg version="1.1" id="Layer_1" xmlns="http://www.w3.org/2000/svg" xmlns:xlink="http://www.w3.org/1999/xlink" x="0px" y="0px"
	 viewBox="0 0 500 500" style="enable-background:new 0 0 500 500;" xml:space="preserve">
<style type="text/css">
	.st0{clip-path:url(#SVGID_00000016045869927921613030000012262052169326607233_);}
	.st1{fill:#E61A23;}
	.st2{fill:#ED7622;}
	.st3{fill:#F7B618;}
	.st4{clip-path:url(#SVGID_00000014619094440493135130000015743341631012543128_);}
	.st5{clip-path:url(#SVGID_00000111869853189491290580000009694424043023294120_);}
	.st6{fill:#EDD6AB;}
</style>
<g>
	<g transform="translate(103.820298, 208.592754)">
		<g>
			<path d="M41.1,19.9h46.3v12.8H58.3v7.4h24.9v12.3H58.3v8.1h29.6v12.8H41.1V19.9z"/>
		</g>
	</g>
</g>
<g>
	<g transform="translate(146.563544, 208.592754)">
		<g>
			<path d="M74.9,32.3v10.5h-8.7v15.6c0,1.9,0.3,3.2,0.9,4.1c0.6,0.9,1.8,1.3,3.4,1.3h4.3v9.1c-1.2,0.4-2.9,0.7-4.8,1
				c-2,0.3-3.7,0.4-5.1,0.4c-4.6,0-8.1-0.8-10.5-2.5c-2.5-1.7-3.7-4.5-3.7-8.5V42.8h-5.8V32.3h6.4l3.3-12.4h11.5v12.4H74.9z"/>
		</g>
	</g>
</g>
<g>
	<g transform="translate(170.91242, 208.592754)">
		<g>
			<path d="M67.2,36.6c1.7-1.7,3.6-2.9,5.8-3.9c2.2-0.9,4.6-1.4,7-1.4c4.8,0,8.3,1.3,10.7,4c2.4,2.6,3.6,6.5,3.6,11.4v26.6H78.9
				V48.6c0-1.8-0.5-3.2-1.4-4.2c-0.9-1.1-2.2-1.6-3.9-1.6c-1.9,0-3.5,0.6-4.7,1.9c-1.2,1.2-1.8,2.8-1.8,4.6v24.1H51.8V17h15.5V36.6z
				"/>
		</g>
	</g>
</g>
<g>
	<g transform="translate(210.016489, 208.592754)">
		<g>
			<path d="M59.1,27.5V17h15.5v10.5H59.1z M59.1,73.3v-41h15.5v41H59.1z"/>
		</g>
	</g>
</g>
<g>
	<g transform="translate(227.020863, 208.592754)">
		<g>
			<path d="M82.8,31.4c7.2,0,12.9,1.8,17,5.5c4.1,3.6,6.2,9,6.2,16c0,7-2.1,12.3-6.2,16c-4.1,3.6-9.8,5.5-17,5.5
				c-7.2,0-12.8-1.8-16.9-5.4c-4.1-3.6-6.1-9-6.1-16s2-12.4,6.1-16C69.9,33.2,75.6,31.4,82.8,31.4z M82.8,41.9
				c-5.1,0-7.6,2.9-7.6,8.8v4.4c0,5.8,2.5,8.7,7.6,8.7c5.1,0,7.7-2.9,7.7-8.7v-4.4C90.5,44.8,87.9,41.9,82.8,41.9z"/>
		</g>
	</g>
</g>
<g>
	<g transform="translate(182.225281, 232.40307)">
		<g>
			<path d="M56.1,60.1h-6.9v-5h20.1v5h-6.9v17.4h-6.4V60.1z"/>
		</g>
	</g>
</g>
<g>
	<g transform="translate(212.971262, 232.40307)">
		<g>
			<path d="M65.1,77.8c-1.9,0-3.5-0.4-5-1.2c-1.5-0.8-2.7-1.8-3.5-3.2c-0.8-1.4-1.3-2.9-1.3-4.7c0-1.7,0.4-3.3,1.3-4.6
				c0.8-1.4,2-2.4,3.5-3.2c1.5-0.8,3.2-1.1,5-1.1c1.9,0,3.6,0.4,5.1,1.1c1.5,0.8,2.7,1.8,3.5,3.2c0.8,1.4,1.3,2.9,1.3,4.6
				c0,1.7-0.4,3.3-1.3,4.7c-0.8,1.4-2,2.4-3.5,3.2C68.7,77.4,67,77.8,65.1,77.8z M65.1,73c1.1,0,2-0.4,2.6-1.1c0.7-0.7,1-1.8,1-3.1
				c0-1.3-0.3-2.3-1-3c-0.7-0.7-1.6-1.1-2.6-1.1c-1.1,0-1.9,0.4-2.6,1.1c-0.7,0.7-1,1.7-1,3c0,1.3,0.3,2.3,1,3.1
				C63.2,72.6,64.1,73,65.1,73z"/>
		</g>
	</g>
</g>
<g>
	<g transform="translate(244.564415, 232.40307)">
		<g>
			<path d="M80.2,60.1v17.4h-5.8v-1.9c-0.6,0.7-1.4,1.2-2.3,1.6c-0.9,0.4-1.8,0.6-2.9,0.6c-2.2,0-4-0.7-5.4-2c-1.3-1.3-2-3.3-2-6
				v-9.7h6.1v8.7c0,1.3,0.2,2.2,0.7,2.8c0.5,0.6,1.2,0.9,2.2,0.9c1,0,1.7-0.3,2.3-1c0.6-0.7,0.9-1.7,0.9-3.1v-8.4H80.2z"/>
		</g>
	</g>
</g>
<g>
	<g transform="translate(276.868097, 232.40307)">
		<g>
			<path d="M73.4,62.2c0.6-0.8,1.4-1.4,2.4-1.8c1-0.4,2.1-0.6,3.4-0.6v5.5c-0.6-0.1-1-0.1-1.4-0.1c-1.3,0-2.3,0.4-3.1,1.1
				c-0.7,0.7-1.1,1.8-1.1,3.2v8h-6.1V60.1h5.8V62.2z"/>
		</g>
	</g>
</g>
<g>
	<defs>
		<rect id="SVGID_1_" x="285.6" y="238.1" width="48.5" height="48.5"/>
	</defs>
	<clipPath id="SVGID_00000178179013265452326740000005567097353434876323_">
		<use xlink:href="#SVGID_1_"  style="overflow:visible;"/>
	</clipPath>
	<g style="clip-path:url(#SVGID_00000178179013265452326740000005567097353434876323_);">
		<path class="st1" d="M334.1,262.3c0,0.8,0,1.6-0.1,2.4s-0.2,1.6-0.3,2.4c-0.2,0.8-0.3,1.5-0.6,2.3c-0.2,0.8-0.5,1.5-0.8,2.2
			c-0.3,0.7-0.6,1.4-1,2.2c-0.4,0.7-0.8,1.4-1.2,2c-0.4,0.7-0.9,1.3-1.4,1.9c-0.5,0.6-1,1.2-1.6,1.8c-0.6,0.6-1.1,1.1-1.8,1.6
			c-0.6,0.5-1.3,1-1.9,1.4c-0.7,0.4-1.3,0.8-2,1.2c-0.7,0.4-1.4,0.7-2.2,1c-0.7,0.3-1.5,0.6-2.2,0.8c-0.8,0.2-1.5,0.4-2.3,0.6
			c-0.8,0.2-1.6,0.3-2.4,0.3c-0.8,0.1-1.6,0.1-2.4,0.1c-0.8,0-1.6,0-2.4-0.1c-0.8-0.1-1.6-0.2-2.4-0.3c-0.8-0.2-1.5-0.3-2.3-0.6
			c-0.8-0.2-1.5-0.5-2.2-0.8c-0.7-0.3-1.4-0.6-2.2-1c-0.7-0.4-1.4-0.8-2-1.2c-0.7-0.4-1.3-0.9-1.9-1.4c-0.6-0.5-1.2-1-1.8-1.6
			c-0.6-0.6-1.1-1.2-1.6-1.8c-0.5-0.6-1-1.3-1.4-1.9c-0.4-0.7-0.8-1.3-1.2-2c-0.4-0.7-0.7-1.4-1-2.2c-0.3-0.7-0.6-1.5-0.8-2.2
			s-0.4-1.5-0.6-2.3c-0.2-0.8-0.3-1.6-0.3-2.4s-0.1-1.6-0.1-2.4c0-0.8,0-1.6,0.1-2.4s0.2-1.6,0.3-2.4c0.2-0.8,0.3-1.6,0.6-2.3
			c0.2-0.8,0.5-1.5,0.8-2.2c0.3-0.7,0.6-1.4,1-2.1c0.4-0.7,0.8-1.4,1.2-2c0.4-0.7,0.9-1.3,1.4-1.9c0.5-0.6,1-1.2,1.6-1.8
			c0.6-0.6,1.2-1.1,1.8-1.6c0.6-0.5,1.2-1,1.9-1.4c0.7-0.4,1.3-0.8,2-1.2c0.7-0.4,1.4-0.7,2.2-1s1.5-0.6,2.2-0.8
			c0.8-0.2,1.5-0.4,2.3-0.6c0.8-0.2,1.6-0.3,2.4-0.3c0.8-0.1,1.6-0.1,2.4-0.1c0.8,0,1.6,0,2.4,0.1c0.8,0.1,1.6,0.2,2.4,0.3
			c0.8,0.2,1.6,0.3,2.3,0.6c0.8,0.2,1.5,0.5,2.2,0.8s1.4,0.6,2.2,1c0.7,0.4,1.4,0.8,2,1.2c0.7,0.4,1.3,0.9,1.9,1.4
			c0.6,0.5,1.2,1,1.8,1.6c0.6,0.6,1.1,1.1,1.6,1.8c0.5,0.6,1,1.3,1.4,1.9c0.4,0.7,0.8,1.3,1.2,2c0.4,0.7,0.7,1.4,1,2.1
			c0.3,0.7,0.6,1.5,0.8,2.2c0.2,0.8,0.4,1.5,0.6,2.3c0.2,0.8,0.3,1.6,0.3,2.4S334.1,261.5,334.1,262.3z"/>
	</g>
</g>
<path class="st2" d="M327.7,262.3c0,1.2-0.1,2.3-0.3,3.5c-0.2,1.2-0.6,2.3-1,3.4c-0.4,1.1-1,2.1-1.7,3.1c-0.7,1-1.4,1.9-2.2,2.7
	c-0.8,0.8-1.7,1.6-2.7,2.2c-1,0.7-2,1.2-3.1,1.6c-1.1,0.4-2.2,0.8-3.4,1c-1.2,0.2-2.3,0.3-3.5,0.3c-1.2,0-2.3-0.1-3.5-0.3
	c-1.2-0.2-2.3-0.6-3.4-1c-1.1-0.4-2.1-1-3.1-1.6c-1-0.7-1.9-1.4-2.7-2.2s-1.6-1.7-2.2-2.7c-0.7-1-1.2-2-1.7-3.1
	c-0.4-1.1-0.8-2.2-1-3.4c-0.2-1.1-0.3-2.3-0.3-3.5s0.1-2.3,0.3-3.5c0.2-1.2,0.6-2.3,1-3.3c0.4-1.1,1-2.1,1.7-3.1
	c0.7-1,1.4-1.9,2.2-2.7c0.8-0.8,1.7-1.6,2.7-2.2c1-0.7,2-1.2,3.1-1.7c1.1-0.4,2.2-0.8,3.4-1c1.1-0.2,2.3-0.3,3.5-0.3
	c1.2,0,2.3,0.1,3.5,0.3c1.2,0.2,2.3,0.6,3.4,1c1.1,0.4,2.1,1,3.1,1.7c1,0.7,1.9,1.4,2.7,2.2c0.8,0.8,1.6,1.7,2.2,2.7
	c0.7,1,1.2,2,1.7,3.1c0.4,1.1,0.8,2.2,1,3.3C327.6,260,327.7,261.2,327.7,262.3z"/>
<path class="st3" d="M320.8,262.3c0,0.7-0.1,1.4-0.2,2.1c-0.1,0.7-0.3,1.4-0.6,2.1c-0.3,0.7-0.6,1.3-1,1.9c-0.4,0.6-0.9,1.2-1.4,1.7
	c-0.5,0.5-1.1,1-1.7,1.4c-0.6,0.4-1.2,0.7-1.9,1c-0.7,0.3-1.4,0.5-2.1,0.6c-0.7,0.1-1.4,0.2-2.1,0.2c-0.7,0-1.4-0.1-2.1-0.2
	c-0.7-0.1-1.4-0.3-2.1-0.6c-0.7-0.3-1.3-0.6-1.9-1c-0.6-0.4-1.2-0.9-1.7-1.4c-0.5-0.5-1-1.1-1.4-1.7c-0.4-0.6-0.7-1.2-1-1.9
	c-0.3-0.7-0.5-1.4-0.6-2.1c-0.1-0.7-0.2-1.4-0.2-2.1c0-0.7,0.1-1.4,0.2-2.1c0.1-0.7,0.3-1.4,0.6-2.1c0.3-0.7,0.6-1.3,1-1.9
	c0.4-0.6,0.9-1.2,1.4-1.7c0.5-0.5,1.1-1,1.7-1.4c0.6-0.4,1.2-0.7,1.9-1c0.7-0.3,1.3-0.5,2.1-0.6c0.7-0.1,1.4-0.2,2.1-0.2
	c0.7,0,1.4,0.1,2.1,0.2c0.7,0.1,1.4,0.3,2.1,0.6c0.7,0.3,1.3,0.6,1.9,1c0.6,0.4,1.2,0.9,1.7,1.4c0.5,0.5,1,1.1,1.4,1.7
	c0.4,0.6,0.7,1.2,1,1.9c0.3,0.7,0.5,1.4,0.6,2.1C320.8,260.9,320.8,261.6,320.8,262.3z"/>
<g>
	<defs>
		<rect id="SVGID_00000036962857398175876350000004630277077895165361_" x="287.4" y="257.8" width="44.6" height="28.8"/>
	</defs>
	<clipPath id="SVGID_00000039856819770346684650000003977860473878483845_">
		<use xlink:href="#SVGID_00000036962857398175876350000004630277077895165361_"  style="overflow:visible;"/>
	</clipPath>
	<g style="clip-path:url(#SVGID_00000039856819770346684650000003977860473878483845_);">
		<path d="M329,269.2l-3.2-3.2l-2.3-2.3l-1.7,1.9l-0.4,0.5l-3.2-2.3l-2.1-1.5l-1.4,1.1l-4.7-5.5l-4.7,4.3l-2.1-0.5l-1.5,1.7
			l-3.1,3.7l-1.4,1.7l-2,0.3l-2.1,0.3l-1.5,1.4l-3,2.8c0.1,0.2,0.2,0.4,0.3,0.6c0.9,1.6,2,3.1,3.2,4.5c0.1,0.1,0.1,0.1,0.2,0.2
			c0.5,0.5,0.9,1,1.4,1.4c0.9,0.8,1.9,1.6,2.9,2.3c0.4,0.3,0.8,0.5,1.3,0.8c0.9,0.5,1.8,1,2.8,1.4c0.3,0.1,0.6,0.3,0.9,0.4
			c0.4,0.1,0.8,0.3,1.2,0.4c0.1,0,0.2,0,0.2,0.1c1.3,0.4,2.7,0.7,4.1,0.9c0.8,0.1,1.6,0.2,2.4,0.2c0.2,0,0.4,0,0.6,0
			c1.3,0,2.5-0.1,3.7-0.3c0.3,0,0.5-0.1,0.8-0.1c1-0.2,1.9-0.4,2.8-0.7c0.5-0.2,1-0.3,1.5-0.5c2.9-1.2,5.6-2.9,7.8-5
			c0.8-0.7,1.5-1.5,2.2-2.3c0,0,0,0,0,0c0.1-0.2,0.3-0.3,0.4-0.5c1-1.3,1.9-2.7,2.6-4.2c0.1-0.2,0.2-0.4,0.3-0.6L329,269.2z"/>
	</g>
</g>
<g>
	<defs>
		<rect id="SVGID_00000083783570334383813260000001281512118758446721_" x="292.1" y="257.8" width="37.6" height="28.8"/>
	</defs>
	<clipPath id="SVGID_00000094616692532609051130000012782446793236762497_">
		<use xlink:href="#SVGID_00000083783570334383813260000001281512118758446721_"  style="overflow:visible;"/>
	</clipPath>
	<g style="clip-path:url(#SVGID_00000094616692532609051130000012782446793236762497_);">
		<path class="st6" d="M300.6,281.9l1-1.9l-3.1,2v0.9l-0.8,0.4c0.9,0.5,1.8,1,2.8,1.4l2.5-2.4L300.6,281.9z M296.1,281.9l1.5-1h-0.9
			l1-1.3l-1.8,0.5l1.7-1.6l-4.1,1.8c0.9,0.8,1.9,1.6,2.9,2.3l0.9-0.8L296.1,281.9z M302.9,285.5c1.3,0.4,2.7,0.7,4.1,0.9l-1.5-2.2
			L302.9,285.5z M318.4,282.6l-1.7-2h2.8L317,278l2,0.2l-2.5-2.9h0.5l-0.8-0.8l2.3-0.2l-0.5-0.6l1,0.1l-3.6-4.2v0.6l-0.7-0.2l0.3,1
			l-2.8-2.9l-2.2-1.4v-1.2l0.3,0.9l0.7,0.4l-0.9-1.7l-1.7-0.9l0.6-1.2l0.5,0.4l-0.1-0.8l0.8,0.6l-0.4-1.9l-0.8-0.8l-0.6,2.1
			l-0.8,1.2l-2.6-0.6l-2.1-0.5l3.6,3.9l0.6,4.7l2,1.7l-0.6,0.3l3.5,3.4h-1.4l2.9,2.7h-0.9l2.9,3.1l-8.5-5.4l3-0.6l-4.7-1.2l0.7-0.7
			l-6.4-3.7l0.9,2.2l-2.4,0.2l7.3,8.7l1.2-0.8l7,5.3c0.3,0,0.5-0.1,0.8-0.1l-1.6-3l4.5,2.3c0.5-0.2,1-0.3,1.5-0.5l-2.2-2.3
			L318.4,282.6L318.4,282.6z M327.1,272.1l1.6,0.3l-1.6-2.8l2.4,1.9l-1-1.9l-5.1-5l2.7,5.6l0.4,2.9l2.2,4.5c0.1-0.2,0.3-0.3,0.4-0.5
			l-0.9-1.9L327.1,272.1z M325.1,271.9l-1.6-1.2l-2.2-3.7l-5.4-3.8l7.9,11.9l-1.7-0.2l3.5,3.5l0.9,1.5c0.8-0.7,1.5-1.5,2.2-2.3
			l-3.6-4.5L325.1,271.9L325.1,271.9z M298.1,273.1l-2.6-1.4l2.5-0.5v0.7l1.6-1.2l4.9-1.6l2.1,1.2l-0.9-3.5l-1.7-2l1,3.1l-1.1-0.2
			l-1,1.6l-1.9,0.8l-4-0.5l-4.1,0.6l3.4,4.3L298.1,273.1z M311,263l0.7,3.2l0.8-0.8l0.7,2.1l0.1-1.1l1.2,1.2l-0.7-2.1l1.5,1.9
			l-0.7-3.2l-4.7-5.5l1.8,4.7L311,263z"/>
	</g>
</g>
</svg>
