<?xml version="1.0" encoding="utf-8"?>
<!-- Generator: Adobe Illustrator 26.3.1, SVG Export Plug-In . SVG Version: 6.00 Build 0)  -->
<svg version="1.1" id="Layer_1" xmlns="http://www.w3.org/2000/svg" xmlns:xlink="http://www.w3.org/1999/xlink" x="0px" y="0px"
	 viewBox="0 0 96 42.6" style="enable-background:new 0 0 96 42.6;" xml:space="preserve">
<style type="text/css">
	.st0{clip-path:url(#SVGID_00000159430292132200758270000014656434811357376936_);}
	.st1{fill:#E61A23;}
	.st2{fill:#ED7622;}
	.st3{fill:#F7B618;}
	.st4{clip-path:url(#SVGID_00000039812276489919633930000009054357441292718763_);}
	.st5{clip-path:url(#SVGID_00000153705135762544293310000015583448648231191461_);}
	.st6{fill:#EDD6AB;}
</style>
<g>
	<g transform="translate(103.820298, 208.592754)">
		<g>
			<path d="M-91.5-200h16.4v4.5h-10.3v2.6h8.8v4.3h-8.8v2.9h10.5v4.5h-16.5V-200z"/>
		</g>
	</g>
</g>
<g>
	<g transform="translate(146.563544, 208.592754)">
		<g>
			<path d="M-107.1-195.6v3.7h-3.1v5.5c0,0.7,0.1,1.1,0.3,1.4c0.2,0.3,0.6,0.5,1.2,0.5h1.5v3.2c-0.4,0.1-1,0.2-1.7,0.4
				c-0.7,0.1-1.3,0.1-1.8,0.1c-1.6,0-2.9-0.3-3.7-0.9c-0.9-0.6-1.3-1.6-1.3-3v-7.2h-2.1v-3.7h2.3l1.2-4.4h4.1v4.4H-107.1z"/>
		</g>
	</g>
</g>
<g>
	<g transform="translate(170.91242, 208.592754)">
		<g>
			<path d="M-125.6-194.1c0.6-0.6,1.3-1,2.1-1.4c0.8-0.3,1.6-0.5,2.5-0.5c1.7,0,2.9,0.5,3.8,1.4c0.8,0.9,1.3,2.3,1.3,4v9.4h-5.4
				v-8.7c0-0.6-0.2-1.1-0.5-1.5c-0.3-0.4-0.8-0.6-1.4-0.6c-0.7,0-1.2,0.2-1.7,0.7c-0.4,0.4-0.6,1-0.6,1.6v8.5h-5.4V-201h5.5
				L-125.6-194.1L-125.6-194.1z"/>
		</g>
	</g>
</g>
<g>
	<g transform="translate(210.016489, 208.592754)">
		<g>
			<path d="M-153.7-197.3v-3.7h5.5v3.7H-153.7z M-153.7-181.1v-14.5h5.5v14.5H-153.7z"/>
		</g>
	</g>
</g>
<g>
	<g transform="translate(227.020863, 208.592754)">
		<g>
			<path d="M-156.4-195.9c2.5,0,4.6,0.6,6,1.9c1.4,1.3,2.2,3.2,2.2,5.7s-0.7,4.3-2.2,5.7c-1.4,1.3-3.5,1.9-6,1.9s-4.5-0.6-6-1.9
				c-1.4-1.3-2.2-3.2-2.2-5.7c0-2.5,0.7-4.4,2.2-5.7C-160.9-195.3-158.9-195.9-156.4-195.9z M-156.4-192.2c-1.8,0-2.7,1-2.7,3.1v1.6
				c0,2.1,0.9,3.1,2.7,3.1c1.8,0,2.7-1,2.7-3.1v-1.6C-153.6-191.2-154.6-192.2-156.4-192.2z"/>
		</g>
	</g>
</g>
<g>
	<g transform="translate(182.225281, 232.40307)">
		<g>
			<path d="M-136.8-201.2h-2.4v-1.8h7.1v1.8h-2.4v6.2h-2.3L-136.8-201.2L-136.8-201.2z"/>
		</g>
	</g>
</g>
<g>
	<g transform="translate(212.971262, 232.40307)">
		<g>
			<path d="M-153.5-194.9c-0.7,0-1.2-0.1-1.8-0.4c-0.5-0.3-1-0.6-1.2-1.1s-0.5-1-0.5-1.7c0-0.6,0.1-1.2,0.5-1.6
				c0.3-0.5,0.7-0.8,1.2-1.1c0.5-0.3,1.1-0.4,1.8-0.4c0.7,0,1.3,0.1,1.8,0.4c0.5,0.3,1,0.6,1.2,1.1s0.5,1,0.5,1.6
				c0,0.6-0.1,1.2-0.5,1.7c-0.3,0.5-0.7,0.8-1.2,1.1C-152.3-195.1-152.9-194.9-153.5-194.9z M-153.5-196.6c0.4,0,0.7-0.1,0.9-0.4
				c0.2-0.2,0.4-0.6,0.4-1.1c0-0.5-0.1-0.8-0.4-1.1c-0.2-0.2-0.6-0.4-0.9-0.4c-0.4,0-0.7,0.1-0.9,0.4c-0.2,0.2-0.4,0.6-0.4,1.1
				c0,0.5,0.1,0.8,0.4,1.1C-154.2-196.8-153.9-196.6-153.5-196.6z"/>
		</g>
	</g>
</g>
<g>
	<g transform="translate(244.564415, 232.40307)">
		<g>
			<path d="M-168.6-201.2v6.2h-2.1v-0.7c-0.2,0.2-0.5,0.4-0.8,0.6c-0.3,0.1-0.6,0.2-1,0.2c-0.8,0-1.4-0.2-1.9-0.7
				c-0.5-0.5-0.7-1.2-0.7-2.1v-3.4h2.2v3.1c0,0.5,0.1,0.8,0.2,1c0.2,0.2,0.4,0.3,0.8,0.3s0.6-0.1,0.8-0.4s0.3-0.6,0.3-1.1v-3
				L-168.6-201.2L-168.6-201.2z"/>
		</g>
	</g>
</g>
<g>
	<g transform="translate(276.868097, 232.40307)">
		<g>
			<path d="M-191.9-200.4c0.2-0.3,0.5-0.5,0.8-0.6s0.7-0.2,1.2-0.2v1.9c-0.2,0-0.4,0-0.5,0c-0.5,0-0.8,0.1-1.1,0.4
				c-0.2,0.2-0.4,0.6-0.4,1.1v2.8h-2.2v-6.2h2.1L-191.9-200.4L-191.9-200.4z"/>
		</g>
	</g>
</g>
<g>
	<g>
		<defs>
			<rect id="SVGID_1_" x="62.1" y="12" width="17.1" height="17.1"/>
		</defs>
		<clipPath id="SVGID_00000114757510954895699510000004906276427268301213_">
			<use xlink:href="#SVGID_1_"  style="overflow:visible;"/>
		</clipPath>
		<g style="clip-path:url(#SVGID_00000114757510954895699510000004906276427268301213_);">
			<path class="st1" d="M79.2,20.5c0,0.3,0,0.6,0,0.8c0,0.3-0.1,0.6-0.1,0.8C79,22.5,79,22.8,78.9,23c-0.1,0.3-0.2,0.5-0.3,0.8
				c-0.1,0.2-0.2,0.5-0.4,0.8c-0.1,0.2-0.3,0.5-0.4,0.7c-0.1,0.2-0.3,0.5-0.5,0.7s-0.4,0.4-0.6,0.6c-0.2,0.2-0.4,0.4-0.6,0.6
				c-0.2,0.2-0.5,0.4-0.7,0.5c-0.2,0.1-0.5,0.3-0.7,0.4c-0.2,0.1-0.5,0.2-0.8,0.4c-0.2,0.1-0.5,0.2-0.8,0.3
				c-0.3,0.1-0.5,0.1-0.8,0.2c-0.3,0.1-0.6,0.1-0.8,0.1c-0.3,0-0.6,0-0.8,0c-0.3,0-0.6,0-0.8,0C69.6,29,69.3,29,69,29
				c-0.3-0.1-0.5-0.1-0.8-0.2c-0.3-0.1-0.5-0.2-0.8-0.3c-0.2-0.1-0.5-0.2-0.8-0.4c-0.2-0.1-0.5-0.3-0.7-0.4
				c-0.2-0.1-0.5-0.3-0.7-0.5s-0.4-0.4-0.6-0.6c-0.2-0.2-0.4-0.4-0.6-0.6c-0.2-0.2-0.4-0.5-0.5-0.7c-0.1-0.2-0.3-0.5-0.4-0.7
				c-0.1-0.2-0.2-0.5-0.4-0.8c-0.1-0.2-0.2-0.5-0.3-0.8s-0.1-0.5-0.2-0.8c-0.1-0.3-0.1-0.6-0.1-0.8c0-0.3,0-0.6,0-0.8s0-0.6,0-0.8
				c0-0.3,0.1-0.6,0.1-0.8c0.1-0.3,0.1-0.6,0.2-0.8c0.1-0.3,0.2-0.5,0.3-0.8c0.1-0.2,0.2-0.5,0.4-0.7c0.1-0.2,0.3-0.5,0.4-0.7
				c0.1-0.2,0.3-0.5,0.5-0.7c0.2-0.2,0.4-0.4,0.6-0.6c0.2-0.2,0.4-0.4,0.6-0.6c0.2-0.2,0.4-0.4,0.7-0.5s0.5-0.3,0.7-0.4
				c0.2-0.1,0.5-0.2,0.8-0.4c0.3-0.1,0.5-0.2,0.8-0.3c0.3-0.1,0.5-0.1,0.8-0.2c0.3-0.1,0.6-0.1,0.8-0.1c0.3,0,0.6,0,0.8,0
				c0.3,0,0.6,0,0.8,0c0.3,0,0.6,0.1,0.8,0.1c0.3,0.1,0.6,0.1,0.8,0.2c0.3,0.1,0.5,0.2,0.8,0.3c0.2,0.1,0.5,0.2,0.8,0.4
				c0.2,0.1,0.5,0.3,0.7,0.4c0.2,0.1,0.5,0.3,0.7,0.5c0.2,0.2,0.4,0.4,0.6,0.6c0.2,0.2,0.4,0.4,0.6,0.6c0.2,0.2,0.4,0.5,0.5,0.7
				c0.1,0.2,0.3,0.5,0.4,0.7c0.1,0.2,0.2,0.5,0.4,0.7c0.1,0.2,0.2,0.5,0.3,0.8c0.1,0.3,0.1,0.5,0.2,0.8c0.1,0.3,0.1,0.6,0.1,0.8
				S79.2,20.3,79.2,20.5z"/>
		</g>
	</g>
</g>
<path class="st2" d="M77,20.5c0,0.4,0,0.8-0.1,1.2c-0.1,0.4-0.2,0.8-0.4,1.2c-0.1,0.4-0.4,0.7-0.6,1.1c-0.2,0.4-0.5,0.7-0.8,1
	c-0.3,0.3-0.6,0.6-1,0.8c-0.4,0.2-0.7,0.4-1.1,0.6c-0.4,0.1-0.8,0.3-1.2,0.4c-0.4,0.1-0.8,0.1-1.2,0.1c-0.4,0-0.8,0-1.2-0.1
	c-0.4-0.1-0.8-0.2-1.2-0.4c-0.4-0.1-0.7-0.4-1.1-0.6c-0.4-0.2-0.7-0.5-1-0.8c-0.3-0.3-0.6-0.6-0.8-1c-0.2-0.4-0.4-0.7-0.6-1.1
	c-0.1-0.4-0.3-0.8-0.4-1.2c-0.1-0.4-0.1-0.8-0.1-1.2c0-0.4,0-0.8,0.1-1.2c0.1-0.4,0.2-0.8,0.4-1.2c0.1-0.4,0.4-0.7,0.6-1.1
	c0.2-0.4,0.5-0.7,0.8-1s0.6-0.6,1-0.8c0.4-0.2,0.7-0.4,1.1-0.6c0.4-0.1,0.8-0.3,1.2-0.4c0.4-0.1,0.8-0.1,1.2-0.1
	c0.4,0,0.8,0,1.2,0.1c0.4,0.1,0.8,0.2,1.2,0.4c0.4,0.1,0.7,0.4,1.1,0.6s0.7,0.5,1,0.8c0.3,0.3,0.6,0.6,0.8,1
	c0.2,0.4,0.4,0.7,0.6,1.1c0.1,0.4,0.3,0.8,0.4,1.2C76.9,19.7,77,20.2,77,20.5z"/>
<path class="st3" d="M74.5,20.5c0,0.2,0,0.5-0.1,0.7c0,0.2-0.1,0.5-0.2,0.7c-0.1,0.2-0.2,0.5-0.4,0.7c-0.1,0.2-0.3,0.4-0.5,0.6
	s-0.4,0.4-0.6,0.5c-0.2,0.1-0.4,0.2-0.7,0.4c-0.2,0.1-0.5,0.2-0.7,0.2c-0.2,0-0.5,0.1-0.7,0.1c-0.2,0-0.5,0-0.7-0.1
	c-0.2,0-0.5-0.1-0.7-0.2c-0.2-0.1-0.5-0.2-0.7-0.4c-0.2-0.1-0.4-0.3-0.6-0.5s-0.4-0.4-0.5-0.6c-0.1-0.2-0.2-0.4-0.4-0.7
	c-0.1-0.2-0.2-0.5-0.2-0.7c0-0.2-0.1-0.5-0.1-0.7c0-0.2,0-0.5,0.1-0.7c0-0.2,0.1-0.5,0.2-0.7c0.1-0.2,0.2-0.5,0.4-0.7
	s0.3-0.4,0.5-0.6s0.4-0.4,0.6-0.5c0.2-0.1,0.4-0.2,0.7-0.4c0.2-0.1,0.5-0.2,0.7-0.2c0.2,0,0.5-0.1,0.7-0.1c0.2,0,0.5,0,0.7,0.1
	c0.2,0,0.5,0.1,0.7,0.2s0.5,0.2,0.7,0.4c0.2,0.1,0.4,0.3,0.6,0.5s0.4,0.4,0.5,0.6c0.1,0.2,0.2,0.4,0.4,0.7c0.1,0.2,0.2,0.5,0.2,0.7
	C74.5,20,74.5,20.3,74.5,20.5z"/>
<g>
	<g>
		<defs>
			<rect id="SVGID_00000063611421318523785910000005311829458201113762_" x="62.7" y="18.9" width="15.8" height="10.2"/>
		</defs>
		<clipPath id="SVGID_00000006707095295315176580000005317286230485429912_">
			<use xlink:href="#SVGID_00000063611421318523785910000005311829458201113762_"  style="overflow:visible;"/>
		</clipPath>
		<g style="clip-path:url(#SVGID_00000006707095295315176580000005317286230485429912_);">
			<path d="M77.4,23l-1.1-1.1L75.5,21l-0.6,0.7l-0.1,0.2l-1.1-0.8l-0.7-0.5l-0.5,0.4L70.7,19l-1.7,1.5l-0.7-0.2l-0.5,0.6l-1.1,1.3
				l-0.5,0.6l-0.7,0.1L64.7,23l-0.5,0.5l-1.1,1c0,0.1,0.1,0.1,0.1,0.2c0.3,0.6,0.7,1.1,1.1,1.6c0,0,0,0,0.1,0.1
				c0.2,0.2,0.3,0.4,0.5,0.5c0.3,0.3,0.7,0.6,1,0.8c0.1,0.1,0.3,0.2,0.5,0.3c0.3,0.2,0.6,0.4,1,0.5c0.1,0,0.2,0.1,0.3,0.1
				c0.1,0,0.3,0.1,0.4,0.1c0,0,0.1,0,0.1,0c0.5,0.1,1,0.2,1.4,0.3c0.3,0,0.6,0.1,0.8,0.1c0.1,0,0.1,0,0.2,0c0.5,0,0.9,0,1.3-0.1
				c0.1,0,0.2,0,0.3,0c0.4-0.1,0.7-0.1,1-0.2c0.2-0.1,0.4-0.1,0.5-0.2c1-0.4,2-1,2.8-1.8c0.3-0.2,0.5-0.5,0.8-0.8l0,0
				c0-0.1,0.1-0.1,0.1-0.2c0.4-0.5,0.7-1,0.9-1.5c0-0.1,0.1-0.1,0.1-0.2L77.4,23z"/>
		</g>
	</g>
</g>
<g>
	<g>
		<defs>
			<rect id="SVGID_00000123405328730451214170000011732083879048847528_" x="64.4" y="18.9" width="13.3" height="10.2"/>
		</defs>
		<clipPath id="SVGID_00000049900103819444880450000007275600821394748310_">
			<use xlink:href="#SVGID_00000123405328730451214170000011732083879048847528_"  style="overflow:visible;"/>
		</clipPath>
		<g style="clip-path:url(#SVGID_00000049900103819444880450000007275600821394748310_);">
			<path class="st6" d="M67.4,27.5l0.4-0.7l-1.1,0.7v0.3L66.4,28c0.3,0.2,0.6,0.4,1,0.5l0.9-0.8L67.4,27.5z M65.8,27.5l0.5-0.4H66
				l0.4-0.5l-0.6,0.2l0.6-0.6l-1.4,0.6c0.3,0.3,0.7,0.6,1,0.8l0.3-0.3L65.8,27.5z M68.2,28.7c0.5,0.1,1,0.2,1.4,0.3l-0.5-0.8
				L68.2,28.7z M73.7,27.7L73.1,27h1l-0.9-0.9l0.7,0.1l-0.9-1h0.2l-0.3-0.3l0.8-0.1l-0.2-0.2l0.4,0l-1.3-1.5v0.2l-0.2-0.1l0.1,0.4
				l-1-1l-0.8-0.5v-0.4l0.1,0.3l0.2,0.1l-0.3-0.6l-0.6-0.3l0.2-0.4l0.2,0.1l0-0.3l0.3,0.2l-0.1-0.7l-0.3-0.3l-0.2,0.7l-0.3,0.4
				L69,20.9l-0.7-0.2l1.3,1.4l0.2,1.7l0.7,0.6l-0.2,0.1l1.2,1.2h-0.5l1,1h-0.3l1,1.1l-3-1.9l1.1-0.2l-1.7-0.4l0.2-0.2L67,23.6
				l0.3,0.8l-0.8,0.1l2.6,3.1l0.4-0.3l2.5,1.9c0.1,0,0.2,0,0.3,0L71.7,28l1.6,0.8c0.2-0.1,0.4-0.1,0.5-0.2l-0.8-0.8L73.7,27.7
				L73.7,27.7z M76.8,24l0.6,0.1l-0.6-1l0.8,0.7l-0.4-0.7l-1.8-1.8l1,2l0.1,1l0.8,1.6c0-0.1,0.1-0.1,0.1-0.2l-0.3-0.7L76.8,24z
				 M76.1,23.9l-0.6-0.4l-0.8-1.3l-1.9-1.3l2.8,4.2L75,25l1.2,1.2l0.3,0.5c0.3-0.2,0.5-0.5,0.8-0.8l-1.3-1.6L76.1,23.9L76.1,23.9z
				 M66.5,24.4l-0.9-0.5l0.9-0.2v0.2l0.6-0.4l1.7-0.6l0.7,0.4l-0.3-1.2l-0.6-0.7l0.4,1.1l-0.4-0.1L68.2,23l-0.7,0.3l-1.4-0.2
				l-1.4,0.2l1.2,1.5L66.5,24.4z M71.1,20.8l0.2,1.1l0.3-0.3l0.2,0.7l0-0.4l0.4,0.4l-0.2-0.7l0.5,0.7l-0.2-1.1l-1.7-1.9l0.6,1.7
				L71.1,20.8z"/>
		</g>
	</g>
</g>
</svg>
